<?xml version="1.0" encoding="utf-8"?>
<!-- Generator: Adobe Illustrator 16.0.0, SVG Export Plug-In . SVG Version: 6.00 Build 0)  -->
<!DOCTYPE svg PUBLIC "-//W3C//DTD SVG 1.1//EN" "http://www.w3.org/Graphics/SVG/1.1/DTD/svg11.dtd">
<svg version="1.1" id="Ebene_1" xmlns="http://www.w3.org/2000/svg" xmlns:xlink="http://www.w3.org/1999/xlink" x="0px" y="0px"
	 width="297.64px" height="99.21px" viewBox="0 0 297.64 99.21" enable-background="new 0 0 297.64 99.21" xml:space="preserve">
<path d="M174.132,30.788c-0.787-0.507-1.37-0.684-2.054-0.684c-1.217,0-1.875,0.761-1.875,2.41v0.834h4.967v1.928h-4.967v10.849
	h-2.131V35.276h-3.601v-1.928h3.601v-0.785c0-3.093,1.495-4.386,3.929-4.386c1.167,0,1.952,0.305,2.662,0.735L174.132,30.788z"/>
<path d="M182.272,44.401c2.611,0,4.106-2.206,4.106-4.665c0-2.458-1.495-4.664-4.106-4.664c-2.61,0-4.106,2.206-4.106,4.664
	C178.166,42.195,179.662,44.401,182.272,44.401 M182.272,33.145c3.902,0,6.286,3.068,6.286,6.592c0,3.524-2.384,6.591-6.286,6.591
	c-3.903,0-6.287-3.067-6.287-6.591C175.985,36.212,178.369,33.145,182.272,33.145"/>
<path d="M200.062,37.404c-0.177-1.47-0.938-2.331-2.458-2.331c-2.23,0-4.334,2.103-4.334,6.439v4.612h-2.13V33.348h2.13v2.358
	c0.989-1.547,2.584-2.562,4.714-2.562c2.536,0,4.056,1.522,4.209,4.26H200.062z"/>
<polygon fill="#D57A75" points="66.909,27.572 66.909,28.268 66.909,72.338 70.595,72.338 71.625,72.338 72.504,72.338 
	72.504,27.572 "/>
<g>
	<path fill="#CE5A4E" d="M89.102,76.535c0.384,0,0.889-0.348,0.889-0.73v-52.43c0-0.383-0.505-0.698-0.889-0.698H71.625
		c-0.384,0-0.519,0.157-0.519,0.349v1.048v3.496c0,0.384,0.135,0.702,0.519,0.702h11.884c0.384,0,0.887,0.311,0.887,0.696v41.246
		c0,0.383-0.503,0.725-0.887,0.725H71.625c-0.384,0-0.519,0.131-0.519,0.324v1.047v3.496c0,0.383,0.135,0.73,0.519,0.73H89.102z"/>
</g>
<polygon fill="#8BBD97" points="96.986,27.572 96.986,28.268 96.986,72.338 101.684,72.338 102.582,72.338 102.582,27.572 "/>
<g>
	<path fill="#4EA15A" d="M101.882,76.504v-5.592c7.694,0,13.063-9.566,13.063-21.322c0-11.757-5.369-21.322-13.063-21.322v-5.593
		c10.492,0,18.656,12.074,18.656,26.915C120.538,64.43,112.374,76.504,101.882,76.504"/>
	<path fill="#33A1DF" d="M43.827,59.307v7.713v2.48c0,4.184,2.678,7.035,6.909,7.035h1.19h3.425h4.04
		c0.193,0,0.524-0.348,0.524-0.73v-4.195c0-0.383-0.489-0.672-0.873-0.672h-4.017h-2.05h-1.27c-1.81,0-2.282-0.77-2.282-2.838
		v-1.229v-6.729v-4.104c0-4.217-1.715-5.771-3.803-6.535c2.088-0.763,3.803-2.315,3.803-6.53v-2.914v-7.394v-1.755
		c0-2.033,0.405-2.64,2.282-2.64h1.58h2.004h4.102c0.193,0,0.524-0.318,0.524-0.702v-4.195c0-0.383-0.489-0.698-0.873-0.698h-3.361
		H52.51h-1.774c-4.231,0-6.909,2.74-6.909,6.834v2.196v9.146c0,0-0.139,2.1-0.24,2.814c-0.265,1.891-2.582,3.511-4.017,3.491h-2.199
		c-0.385,0-0.539,0.3-0.539,0.685v4.195c0,0.383,0.154,0.715,0.539,0.715h2.008c1.832-0.025,4.145,1.518,4.321,3.82
		C43.753,57.24,43.827,59.307,43.827,59.307"/>
	<path fill="#BD3C38" d="M71.625,22.676h-1.982H67.43c-0.384,0-0.521,0.315-0.521,0.699v1.291v2.903v0.703h0.521h4.195h0.88v-0.703
		v-4.194v-0.699H71.625z"/>
	<path fill="#BD3C38" d="M66.909,71.611v1.98v2.213c0,0.385,0.137,0.73,0.521,0.73h1.292h2.903h0.879v-0.73v-4.193v-0.672h-0.879
		H67.43h-0.521V71.611z"/>
	<path fill="#27954E" d="M101.684,22.676h-1.981H97.49c-0.384,0-0.504,0.315-0.504,0.699v1.291v2.903v0.703h0.504h4.194h0.898
		v-0.703v-4.194v-0.699H101.684z"/>
	<path fill="#27954E" d="M96.986,71.611v1.98v2.213c0,0.385,0.12,0.73,0.504,0.73h1.291h2.903h0.898v-0.73v-4.193v-0.672h-0.898
		H97.49h-0.504V71.611z"/>
	<path fill="#7BBBB7" d="M131.959,59.307v7.713v2.48c0,4.184,2.627,7.035,6.859,7.035h1.19h3.425h4.04
		c0.193,0,0.573-0.348,0.573-0.73v-4.195c0-0.383-0.538-0.672-0.922-0.672h-4.018h-2.05h-1.268c-1.81,0-2.233-0.77-2.233-2.838
		v-1.229v-6.729v-4.104c0-1.357-0.398-2.586-0.708-3.287h-9.387c2.579,0.701,3.681,1.623,4.207,3.869
		C131.929,57.74,131.959,59.307,131.959,59.307"/>
	<path fill="#7BBBB7" d="M131.562,43.665c-0.542,1.832-1.751,2.793-3.91,3.493h8.807c0.547-1.399,1.096-2.333,1.096-4.184v-2.913
		v-7.394v-1.756c0-2.032,0.355-2.639,2.233-2.639h1.579h2.003h4.103c0.193,0,0.573-0.318,0.573-0.702v-4.195
		c0-0.384-0.538-0.699-0.922-0.699h-3.36h-3.171h-1.775c-4.232,0-6.859,2.741-6.859,6.835v2.196v9.146
		C131.959,40.853,131.833,42.751,131.562,43.665"/>
	<path fill="#9AC9C6" d="M132.924,49.999c1.416,0.52,2.969,1.355,3.923,2.753h10.276c0.385,0,0.923-0.332,0.923-0.715v-4.194
		c0-0.386-0.538-0.687-0.923-0.687h-10.664C135.759,48.556,134.096,49.571,132.924,49.999"/>
	<path fill="#42A5A5" d="M125.453,47.158c-0.385,0-0.489,0.301-0.489,0.685v4.195c0,0.385,0.104,0.717,0.489,0.717h2.007h9.387
		c-0.63-1.4-2.196-2.358-3.314-2.793c1.172-0.43,2.226-1.404,2.926-2.803h-8.808H125.453z"/>
</g>
<rect x="161.604" y="49.179" fill="#CE5A4E" width="101.679" height="30.93"/>
<g>
	<path fill="#FFFFFF" d="M241.415,64.626c0-1.76-0.889-2.92-2.792-2.92c-1.306,0-2.448,0.779-3.101,1.832v-1.686H234v9.137h1.522
		v-3.68c0-2.666,1.252-4.227,2.684-4.227c1.088,0,1.686,0.6,1.686,1.869v6.037h1.523V64.626z M226.513,59.423
		c0,0.688,0.562,1.232,1.25,1.232c0.707,0,1.252-0.545,1.252-1.232c0-0.707-0.545-1.27-1.252-1.27
		C227.074,58.153,226.513,58.716,226.513,59.423 M224.317,63.192h2.793v6.455h-3.155v1.342h8.05v-1.342h-3.372v-7.795h-4.315V63.192
		z M215.289,59.677v7.867c0,2.303,1.342,3.59,3.444,3.59c1.867,0,3.174-1.105,3.5-3.316l-1.379-0.273
		c-0.235,1.541-1.033,2.213-2.121,2.213c-1.25,0-1.922-0.707-1.922-2.213v-9.246h-4.043v1.379H215.289z M212.533,64.751
		c-0.109-1.957-1.196-3.045-3.011-3.045c-1.521,0-2.664,0.727-3.371,1.832v-1.686h-1.523v9.137h1.523V67.69
		c0-3.102,1.505-4.607,3.101-4.607c1.087,0,1.631,0.617,1.759,1.668H212.533z M197.812,63.083c1.486,0,2.447,0.834,2.72,2.285
		h-5.421C195.418,63.991,196.343,63.083,197.812,63.083 M202.144,66.112c0-2.393-1.504-4.406-4.332-4.406
		c-2.738,0-4.369,2.141-4.369,4.715c0,2.664,1.703,4.713,4.369,4.713c1.703,0,3.154-0.635,4.151-2.557l-1.215-0.635
		c-0.616,1.143-1.56,1.814-2.937,1.814c-1.613,0-2.72-1.197-2.811-3.01h7.143V66.112z M187.894,59.821
		c1.178,0,1.994,0.598,1.994,1.83c0,1.234-0.816,1.814-1.994,1.814h-2.828v-3.645H187.894z M185.065,64.987h2.92
		c1.686,0,2.537,0.689,2.537,2.23c0,1.559-0.852,2.248-2.537,2.248h-2.92V64.987z M183.47,58.298v12.691h4.75
		c2.467,0,3.953-1.414,3.953-3.771c0-1.576-0.871-2.684-2.085-3.174c0.798-0.434,1.45-1.357,1.45-2.482
		c0-2.086-1.359-3.264-3.607-3.264H183.47z"/>
</g>
</svg>
