<?xml version="1.0" encoding="UTF-8" standalone="no"?>
<!-- Created with Inkscape (http://www.inkscape.org/) -->

<svg
   xmlns:dc="http://purl.org/dc/elements/1.1/"
   xmlns:cc="http://creativecommons.org/ns#"
   xmlns:rdf="http://www.w3.org/1999/02/22-rdf-syntax-ns#"
   xmlns:svg="http://www.w3.org/2000/svg"
   xmlns="http://www.w3.org/2000/svg"
   xmlns:sodipodi="http://sodipodi.sourceforge.net/DTD/sodipodi-0.dtd"
   xmlns:inkscape="http://www.inkscape.org/namespaces/inkscape"
   id="svg2"
   version="1.1"
   inkscape:version="0.91 r13725"
   width="156"
   height="180"
   xml:space="preserve"
   sodipodi:docname="opendata-moers.svg"><metadata
     id="metadata8"><rdf:RDF><cc:Work
         rdf:about=""><dc:format>image/svg+xml</dc:format><dc:type
           rdf:resource="http://purl.org/dc/dcmitype/StillImage" /><dc:title /></cc:Work></rdf:RDF></metadata><defs
     id="defs6" /><sodipodi:namedview
     pagecolor="#ffffff"
     bordercolor="#666666"
     borderopacity="1"
     objecttolerance="10"
     gridtolerance="10"
     guidetolerance="10"
     inkscape:pageopacity="0"
     inkscape:pageshadow="2"
     inkscape:window-width="1440"
     inkscape:window-height="800"
     id="namedview4"
     showgrid="false"
     inkscape:zoom="3.3222155"
     inkscape:cx="67.761148"
     inkscape:cy="90.000181"
     inkscape:window-x="0"
     inkscape:window-y="1"
     inkscape:window-maximized="1"
     inkscape:current-layer="g10"
     showguides="true"
     inkscape:guide-bbox="true"><inkscape:grid
       type="xygrid"
       id="grid4174" /></sodipodi:namedview><g
     id="g10"
     inkscape:groupmode="layer"
     inkscape:label="Codefor_Hex_sticker_ALL"
     transform="matrix(1.25,0,0,-1.25,0,180)"><path
       style="fill:#d2d3d3;fill-opacity:1;fill-rule:nonzero;stroke:none"
       d="M 62.4,144.00029 0,107.99951 l 0.04219,-0.0234 c -0.0046,-0.003 -0.0152,-0.003 -0.01875,-0.006 L 0,35.999506 62.4,2.906e-4 l 62.4,35.9992154 -0.0438,0.02496 c 0.005,0.0032 0.0165,0.0024 0.0203,0.0064 L 124.8,107.99951 Z"
       id="path4241"
       inkscape:connector-curvature="0"
       sodipodi:nodetypes="ccccccccccc" /><path
       style="color:#000000;font-style:normal;font-variant:normal;font-weight:normal;font-stretch:normal;font-size:medium;line-height:normal;font-family:sans-serif;text-indent:0;text-align:start;text-decoration:none;text-decoration-line:none;text-decoration-style:solid;text-decoration-color:#000000;letter-spacing:normal;word-spacing:normal;text-transform:none;direction:ltr;block-progression:tb;writing-mode:lr-tb;baseline-shift:baseline;text-anchor:start;white-space:normal;clip-rule:nonzero;display:inline;overflow:visible;visibility:visible;opacity:1;isolation:auto;mix-blend-mode:normal;color-interpolation:sRGB;color-interpolation-filters:linearRGB;solid-color:#000000;solid-opacity:1;fill:#222323;fill-opacity:1;fill-rule:nonzero;stroke:none;stroke-width:1.5;stroke-linecap:butt;stroke-linejoin:miter;stroke-miterlimit:4;stroke-dasharray:none;stroke-dashoffset:0;stroke-opacity:1;color-rendering:auto;image-rendering:auto;shape-rendering:auto;text-rendering:auto;enable-background:accumulate"
       d="m 62.400259,143.99687 -62.399999,-36 0.04219,-0.0234 c -0.0046,-0.003 -0.0152,-0.003 -0.01875,-0.006 L 2.6e-4,35.99844 62.400259,0 l 62.400001,35.99844 -0.0437,0.025 c 0.005,0.0032 0.0165,0.0022 0.0203,0.0062 l 0.0234,71.96718 -62.400001,36 z m 0,-1.38437 61.200001,-35.30781 -0.0234,-70.623442 -0.0234,-0.01562 L 62.400259,1.385936 1.201822,36.690624 l 0.02031,70.620316 0.1,0.0641 61.078125,35.2375 z m -1.8,-4.49844 -0.9,-0.51875 -56.114063,-32.375 0.635938,-0.35625 -0.02187,-66.443748 56.399999,-32.5359363 0,132.2296843 z m 3.6,0 0,-1.03906 0,-131.1906243 57.000001,32.8828083 -0.62188,0.359376 0.0219,66.44844 -56.399997,32.53906 z m -4.8,-2.07812 0,-128.0734443 -53.999999,31.1515683 0.02187,65.771876 0.05781,0.0406 53.920312,31.10938 z m 6.000001,0 54,-31.15469 -0.0219,-65.760938 -0.17344,-0.118752 -53.804684,-31.0390643 0,128.0734443 z m 54.73125,-97.818756 c -0.005,-0.0013 -0.0133,-0.0052 -0.0172,-0.0062 -0.0296,-0.0077 -0.0371,-0.0078 -0.0297,-0.0062 0.004,8.56e-4 0.0297,0.0082 0.0469,0.0125 z m 4.30625,-1.037496 c -0.0113,-0.003 -0.0255,-0.0084 -0.0391,-0.0125 0.004,0.0016 0.009,0.0052 0.0125,0.0063 0.0167,0.0053 0.0131,0.0024 0.0266,0.0062 z m -0.1875,-0.075 c -0.0212,-0.01089 -0.0269,-0.01432 -0.0469,-0.025 9.1e-4,6.96e-4 0.011,0.0094 0.0109,0.0094 l 0.0359,0.01562 z"
       id="path4256"
       inkscape:connector-curvature="0" /><path
       style="fill:#ebaf23;fill-opacity:1;fill-rule:nonzero;stroke:none;stroke-width:1.5;stroke-miterlimit:4;stroke-dasharray:none;stroke-opacity:1"
       d="m 64.800259,137.075 0,-130.1515603 55.200001,31.8437443 -0.0406,0.02344 c 0.004,0.0032 0.0152,0.0024 0.0188,0.0064 l 0.0219,66.431256 z"
       id="path4284"
       inkscape:connector-curvature="0"
       sodipodi:nodetypes="ccccccc" /><path
       style="fill:#000000;fill-opacity:1;stroke:none;stroke-width:3;stroke-linecap:round;stroke-linejoin:round;stroke-miterlimit:4;stroke-dasharray:none;stroke-opacity:1"
       d="M 81 71.759766 L 81 120.99609 L 149.97656 120.99609 L 149.99219 71.759766 L 81 71.759766 z "
       transform="matrix(0.8,0,0,-0.8,0,144)"
       id="rect4298" /><path
       id="path4279"
       d="M 60.000259,137.075 4.80026,105.22812 l 0.03906,-0.0219 c -0.0042,-0.003 -0.01391,-0.003 -0.01718,-0.006 L 4.800268,38.767197 60.000267,6.9234527 Z"
       style="fill:#e4e4e4;fill-opacity:1;fill-rule:nonzero;stroke:none;stroke-width:1.5;stroke-miterlimit:4;stroke-dasharray:none;stroke-opacity:1"
       inkscape:connector-curvature="0"
       sodipodi:nodetypes="ccccccc" /><g
       transform="matrix(1.6043813,0,0,1.6043813,-31.175846,-58.166099)"
       id="g4292"><path
         inkscape:connector-curvature="0"
         id="path4294"
         d="m 44.618488,59.650303 -0.08928,5.580493 c 0.193026,4.088109 -1.847924,6.516 -4.786538,6.542676 -2.938613,0.02668 -4.722681,-2.328255 -4.554958,-6.332951 l 0.009,-5.733411 -5.684724,0.04663 -0.147746,5.985842 2.824699,2.95253 -0.293873,24.666493 -3.03813,3.270082 -0.117312,6.090233 3.097695,-0.0852 0.03337,-2.961358 2.92465,0.05383 0.09541,3.027718 3.107123,-0.0153 0.03244,-3.067498 3.084516,0.03013 0.05474,3.038728 3.014681,0.001 0.07838,-2.971617 3.048652,0.01626 0.07718,2.942637 3.087437,0.0127 0.04218,-6.104669 -3.15353,-3.209464 0.05924,-24.966357 3.074694,-3.100732 0.02088,-5.688894 z"
         style="fill:#b32220;stroke:none;stroke-width:0.47999999;stroke-miterlimit:4;stroke-dasharray:none;stroke-opacity:1"
         sodipodi:nodetypes="cczccccccccccccccccccccccccccc" /><path
         style="fill:#000000;fill-opacity:1"
         d="m 43.322266,51.257812 -0.119141,3.789063 -3.066406,0.05859 -0.04297,-3.689453 -4.476562,-0.121094 0.15625,8.039062 3.796874,4.085938 0.363282,30.595703 -3.53125,3.691406 0.195312,7.898443 7.699219,0.0645 -0.01172,-7.197268 1.513672,0.0332 c 0,0 0.01574,0.505188 0.44336,0.507813 0.427621,0.0026 0.382812,-0.527344 0.382812,-0.527344 l 1.375,0.0059 c 0,0 0.03988,0.534718 0.519531,0.527343 0.479712,-0.0073 0.482422,-0.541015 0.482422,-0.541015 l 1.554688,0.01953 c 0,0 -0.02179,0.533562 0.396484,0.523437 0.418262,-0.01014 0.435547,-0.519531 0.435547,-0.519531 l 1.554687,0.0039 c 0,0 -0.06496,0.485469 0.378907,0.496094 0.443827,0.0106 0.449218,-0.529297 0.449218,-0.529297 l 1.589844,0.01563 0.113281,6.953128 0.0039,0.29687 7.970703,-0.0273 -0.02539,-7.535158 -3.84375,-3.873047 -0.07227,-30.96289 3.939454,-4.013672 -0.05273,-8.054688 -4.451172,0.01953 -0.0957,3.679687 -3.226562,0.01758 -0.09766,-3.71289 -4.355469,0 -0.06836,3.800781 -3.265625,0.03125 -0.03906,-3.828125 -4.472656,-0.02148 z m 0.582031,0.59961 3.294922,0.01758 0.04102,3.837891 4.449219,-0.04102 0.06836,-3.796875 3.181641,0 0.09766,3.714844 4.394532,-0.02344 0.09766,-3.677734 3.269531,-0.01367 0.04883,7.207031 -3.941406,4.011719 0.07422,31.455078 3.84375,3.876953 0.02539,6.687501 -6.779297,0.0234 -0.002,0 -0.107421,-6.66016 c 0.123122,-2.607619 -0.463985,-4.717896 -1.583985,-6.189453 -1.12,-1.471556 -2.778653,-2.287275 -4.697265,-2.304687 -1.917313,-0.01741 -3.504805,0.762483 -4.548829,2.193359 -1.042186,1.428358 -1.551703,3.481793 -1.447265,6.025391 l 0.01367,6.86133 -6.513672,-0.0527 -0.173828,-7.068366 3.527343,-3.689453 L 40.167969,63.183594 36.369141,59.09375 36.230469,51.912109 39.5,52 l 0.04102,3.714844 4.24414,-0.07813 0.119141,-3.779297 z m 5.007812,15.166016 -1.990234,0.07617 0.03125,9.53125 1.966797,-0.0098 -0.0078,-9.597656 z m 0.958985,0.0098 0,9.578125 1.9375,-0.04687 0.03125,-9.498047 -1.96875,-0.0332 z m -0.195313,23.550781 c 0.300834,0.0027 0.588572,0.03446 0.871094,0.07813 L 50.5625,96 l -1.546875,-0.0098 0.0098,-5.378906 c 0.210369,-0.02018 0.427319,-0.02937 0.65039,-0.02734 z m -1.6875,0.236328 0.0078,5.179688 -1.392578,-0.01172 0.01367,-4.46875 c 0.409457,-0.307134 0.865944,-0.543331 1.371093,-0.699219 z m 3.384766,0.0332 c 0.577625,0.184799 1.105284,0.464859 1.576172,0.835937 l -0.02148,4.30661 -1.54102,0.0039 -0.01367,-5.146484 z m -5.566406,1.445312 -0.0098,3.673828 -1.421875,0.01172 c 0.182064,-1.419789 0.608042,-2.585957 1.242188,-3.455078 0.05966,-0.08176 0.126336,-0.153647 0.189453,-0.230469 z m 7.988281,0.232422 c 0.03357,0.04164 0.07085,0.07818 0.103516,0.121094 0.654603,0.860076 1.120097,1.986111 1.33789,3.347656 l -1.457031,0.02344 0.01563,-3.492188 z m -7.978516,4.164062 -0.002,1.177735 -1.533203,0.01172 c -0.0089,-0.407859 -9.39e-4,-0.799484 0.02344,-1.175782 l 1.511718,-0.01367 z m 2.203125,0.0039 -0.01563,1.199219 -1.378906,-0.02148 -0.02734,-1.175781 1.421875,-0.002 z m 5.742188,0.002 1.568359,0.03906 c 0.03165,0.358712 0.04067,0.735796 0.03906,1.123047 l -1.59375,0 -0.01367,-1.162109 z m -4.765625,0.02344 1.554687,0.01367 -0.0098,1.158203 -1.523438,0.0059 -0.02148,-1.177735 z m 2.382812,0 1.560547,0 -0.01758,1.167969 -1.548828,0.0039 0.0059,-1.171875 z"
         id="path4296"
         transform="matrix(0.8,0,0,-0.8,0,144)"
         inkscape:connector-curvature="0" /></g></g></svg>